<svg xmlns="http://www.w3.org/2000/svg" width="141.995" height="54.548" viewBox="0 0 141.995 54.548"><defs><style>.a{fill:#0084bd;}.b{fill:#fff;}</style></defs><path class="a" d="M0,0V54.548H121.2a20.8,20.8,0,0,0,20.8-20.8V0ZM134.823,33.763a13.618,13.618,0,1,1-27.236,0l0-24.2A67.781,67.781,0,0,0,121.2,4.783a67.879,67.879,0,0,0,13.619,4.783Z"/><path class="b" d="M341.44,19.963v24.2a13.618,13.618,0,1,0,27.236,0l0-24.2a67.88,67.88,0,0,1-13.619-4.783,67.781,67.781,0,0,1-13.616,4.783Zm19.376,31.674a10.143,10.143,0,0,1-2.294-.548,3.168,3.168,0,0,0-3.466.775,3.17,3.17,0,0,0-3.466-.775,10.225,10.225,0,0,1-2.294.548l-1.61-7.465a6.16,6.16,0,0,0,3.529-.662,3.486,3.486,0,0,1,2.735-.252,2.961,2.961,0,0,1,1.1,2.054v0a3,3,0,0,1,1.093-2.054,3.5,3.5,0,0,1,2.741.252,6.157,6.157,0,0,0,3.529.662Zm2.467-17.844c-1.3.035-3.466.233-7.011,2.659l-.388.265,1.4.945c.252-.173.482-.252.6-.173a.167.167,0,0,1,.072.129.706.706,0,0,1-.145.406c.668.457.971.662,1.116.756a.63.63,0,0,1,.523-.246.551.551,0,0,1,.592.536.485.485,0,0,1-.3.422.756.756,0,0,1-.4.095,4.586,4.586,0,0,1-2.114-.908,1.084,1.084,0,0,1-.561.268.246.246,0,0,1-.123-.032.183.183,0,0,1-.072-.129.835.835,0,0,1,.186-.476l-.161-.1h0c-.4-.246-.876-.551-1.446-.945-.567.378-1.043.684-1.446.945h0l-.161.1a.847.847,0,0,1,.183.476.2.2,0,0,1-.072.129.218.218,0,0,1-.12.032,1.084,1.084,0,0,1-.561-.268,4.664,4.664,0,0,1-2.117.907.775.775,0,0,1-.4-.091.5.5,0,0,1-.315-.425.555.555,0,0,1,.592-.51.63.63,0,0,1,.533.246l1.106-.756a.731.731,0,0,1-.145-.406.164.164,0,0,1,.076-.129c.11-.079.347,0,.6.173l1.393-.945-.388-.265c-3.554-2.426-5.707-2.625-7.008-2.659,0,0,3.586-.848,7.966,2.174l.258.18.258-.18C359.7,32.946,363.283,33.793,363.283,33.793Zm-5.215-13a4.55,4.55,0,0,0-1.941,1.09,7.489,7.489,0,0,1,5.1.986A7.3,7.3,0,0,0,357,23.08a6.088,6.088,0,0,1,4.2,3.488,8.766,8.766,0,0,0-4.459-2.181A5.853,5.853,0,0,1,358.185,28a6.881,6.881,0,0,0-2.656-3c0,.564-.016,1.194-.016,1.922,0,2.262.054,4.295.142,5.905a2.178,2.178,0,0,1,.63-.158,2.887,2.887,0,0,0-.551.655,3.088,3.088,0,0,1,1.078,0v.032a15.337,15.337,0,0,0-1.758.848,16.1,16.1,0,0,0-1.932-.92.155.155,0,0,0-.019-.028,3.06,3.06,0,0,1,1.182.035,2.838,2.838,0,0,0-.533-.63,2.127,2.127,0,0,1,.69.18c.091-1.613.145-3.655.145-5.927,0-.728,0-1.358-.016-1.922a6.835,6.835,0,0,0-2.656,3,5.867,5.867,0,0,1,1.446-3.611,8.786,8.786,0,0,0-4.449,2.184,6.088,6.088,0,0,1,4.194-3.488,7.3,7.3,0,0,0-4.219-.208,7.518,7.518,0,0,1,5.1-.986,4.572,4.572,0,0,0-1.941-1.084,5.555,5.555,0,0,1,2.47.271,7.781,7.781,0,0,1,.529-1.72,7.85,7.85,0,0,1,.548,1.72,5.568,5.568,0,0,1,2.474-.271Z" transform="translate(-233.851 -10.397)"/><path class="a" d="M365.08,31.929a7.3,7.3,0,0,1,4.219.208,6.088,6.088,0,0,0-4.194,3.488,8.617,8.617,0,0,1,4.449-2.184,5.843,5.843,0,0,0-1.446,3.611,6.835,6.835,0,0,1,2.656-3c0,.564.016,1.194.016,1.922,0,2.272-.054,4.314-.145,5.927a2.127,2.127,0,0,0-.69-.18,2.836,2.836,0,0,1,.533.63,3.06,3.06,0,0,0-1.182-.035.155.155,0,0,1,.019.028,16.092,16.092,0,0,1,1.932.92A15.338,15.338,0,0,1,373,42.416v-.032a3.088,3.088,0,0,0-1.078,0,2.887,2.887,0,0,1,.551-.655,2.177,2.177,0,0,0-.63.158c-.088-1.61-.142-3.643-.142-5.905,0-.728,0-1.358.016-1.922a6.882,6.882,0,0,1,2.656,3,5.876,5.876,0,0,0-1.443-3.611,8.769,8.769,0,0,1,4.446,2.184,6.088,6.088,0,0,0-4.2-3.488,7.3,7.3,0,0,1,4.219-.208,7.5,7.5,0,0,0-5.1-.986,4.551,4.551,0,0,1,1.951-1.1,5.568,5.568,0,0,0-2.474.271,7.85,7.85,0,0,0-.548-1.72,7.783,7.783,0,0,0-.529,1.72,5.555,5.555,0,0,0-2.47-.271,4.572,4.572,0,0,1,1.944,1.09A7.531,7.531,0,0,0,365.08,31.929Z" transform="translate(-250.042 -19.451)"/><path class="a" d="M371.164,78.8a.63.63,0,0,0-.523.246c-.145-.095-.447-.3-1.115-.756a.706.706,0,0,0,.145-.406.167.167,0,0,0-.072-.129c-.117-.079-.347,0-.6.173l-1.4-.945.388-.265C371.545,74.3,373.7,74.1,375,74.062c0,0-3.586-.848-7.969,2.174l-.258.18-.258-.18c-4.38-3.022-7.966-2.174-7.966-2.174,1.3.035,3.466.233,7.008,2.659l.388.265-1.393.945c-.252-.173-.488-.252-.6-.173a.164.164,0,0,0-.076.129.731.731,0,0,0,.145.406l-1.106.756a.63.63,0,0,0-.533-.246.555.555,0,0,0-.592.52.5.5,0,0,0,.315.425.775.775,0,0,0,.4.091,4.6,4.6,0,0,0,2.117-.908,1.084,1.084,0,0,0,.561.268.218.218,0,0,0,.12-.031.2.2,0,0,0,.072-.129.848.848,0,0,0-.183-.476l.161-.1h0c.4-.246.879-.551,1.446-.945.57.378,1.043.684,1.446.945h0l.161.1a.835.835,0,0,0-.186.476.183.183,0,0,0,.073.129.246.246,0,0,0,.123.032,1.084,1.084,0,0,0,.561-.268,4.653,4.653,0,0,0,2.114.908.756.756,0,0,0,.4-.095.485.485,0,0,0,.3-.422.551.551,0,0,0-.63-.52Z" transform="translate(-245.57 -50.65)"/><path class="b" d="M377.456,113.53a1.071,1.071,0,0,0-1.169,1.059.9.9,0,0,0,1,.945,1.2,1.2,0,0,0,.7-.2c-.047.551-.233.876-.813.876a.684.684,0,0,1-.473-.145h-.252v.507a1.762,1.762,0,0,0,.693.123,1.441,1.441,0,0,0,1.544-1.642C378.684,114,378.152,113.53,377.456,113.53Zm0,1.528a.438.438,0,0,1-.479-.492c0-.315.132-.586.492-.586s.526.255.542.911a1.015,1.015,0,0,1-.577.167Z" transform="translate(-257.716 -77.753)"/><path class="b" d="M370.82,114.117v.457H371l.365-.192v2.36h.687V113.66h-.46Z" transform="translate(-253.973 -77.845)"/><path class="b" d="M385.85,114.763a1,1,0,0,0-.561.154h0V114.2h1.364v-.536h-1.859v1.8h.41a.605.605,0,0,1,.482-.208c.252,0,.451.151.451.5a.529.529,0,0,1-.6.526.8.8,0,0,1-.586-.214H384.7v.488a1.478,1.478,0,0,0,.844.221c.75,0,1.26-.394,1.26-1.043a.889.889,0,0,0-.955-.971Z" transform="translate(-263.48 -77.845)"/><path class="b" d="M391.73,114.2h1.579v.019l-1.213,2.256v.271h.655l1.062-2.5v-.583H391.73Z" transform="translate(-268.294 -77.845)"/><path class="a" d="M378.924,115c-.359,0-.492.255-.492.586a.438.438,0,0,0,.479.492,1.015,1.015,0,0,0,.555-.167C379.441,115.246,379.239,115,378.924,115Z" transform="translate(-259.184 -78.763)"/><path class="a" d="M372.506,104.167a3.5,3.5,0,0,0-2.741-.252c-.5.217-.892,1.084-1.093,2.054v0a2.945,2.945,0,0,0-1.1-2.054,3.486,3.486,0,0,0-2.735.252,6.16,6.16,0,0,1-3.529.662l1.61,7.465a10.225,10.225,0,0,0,2.294-.548,3.173,3.173,0,0,1,3.466.775,3.167,3.167,0,0,1,3.466-.775,10.144,10.144,0,0,0,2.294.548l1.582-7.465A6.131,6.131,0,0,1,372.506,104.167Zm-6.97,5.782h-.687v-2.344l-.366.192h-.176v-.457l.772-.457h.457Zm1.339.035a1.762,1.762,0,0,1-.693-.123v-.507h.252a.684.684,0,0,0,.473.145c.58,0,.766-.315.813-.876a1.2,1.2,0,0,1-.7.2.9.9,0,0,1-1-.945,1.071,1.071,0,0,1,1.169-1.059c.706,0,1.229.495,1.229,1.513a1.464,1.464,0,0,1-1.535,1.654Zm2.641,0a1.478,1.478,0,0,1-.845-.221v-.488h.252a.8.8,0,0,0,.586.214.529.529,0,0,0,.6-.526c0-.353-.2-.5-.451-.5a.6.6,0,0,0-.482.208h-.4v-1.8h1.856v.536h-1.364v.722h0a1,1,0,0,1,.561-.154.889.889,0,0,1,.945.971c.019.649-.507,1.043-1.257,1.043Zm3.466-2.521-1.056,2.486h-.655v-.271l1.213-2.256V107.4h-1.576v-.536h2.083Z" transform="translate(-247.46 -71.053)"/><path class="b" d="M312.221,69H310v.835h.416a.429.429,0,0,1,.4.353v7.569h1.7V69.331C312.521,69.1,312.423,69,312.221,69Z" transform="translate(-212.318 -47.258)"/><path class="b" d="M211.309,70.719h-1.67V70a.946.946,0,0,1,.088-.438.552.552,0,0,1,.23-.255.914.914,0,0,1,.35-.113,2.98,2.98,0,0,1,.425-.028h.485v-.744H210.5a1.922,1.922,0,0,0-1.241.381,1.44,1.44,0,0,0-.473,1.2v.715H207.77v.74h3.539Z" transform="translate(-142.301 -46.863)"/><path class="b" d="M212.759,76.491a1.667,1.667,0,0,1-.718-.139,1.26,1.26,0,0,1-.463-.384,1.557,1.557,0,0,1-.243-.561,3.188,3.188,0,0,1-.069-.655V71.6h0V69.142c0-.227-.082-.343-.277-.343h-2.24v.835h.419a.435.435,0,0,1,.4.356V73.6h0v1.963a1.3,1.3,0,0,1-.145.734.771.771,0,0,1-.63.2h-2.206a1.774,1.774,0,0,1-.715-.126,1.16,1.16,0,0,1-.463-.366,1.61,1.61,0,0,1-.252-.551,3.185,3.185,0,0,1-.076-.7V70.9h0V69.12c0-.227-.082-.34-.28-.34h-2.221v.832h.416a.429.429,0,0,1,.413.353v3.611h0v1.985a1.33,1.33,0,0,1-.145.734.747.747,0,0,1-.63.2h-6.819c-1.607-.063-2.426-.7-2.426-1.831a1.509,1.509,0,0,1,.759-1.4v-.611h-.961a3.151,3.151,0,0,0-.63,2.023c0,1.913,1.26,2.877,3.29,2.883l.577.016h6.334a8.776,8.776,0,0,0,1.005-.095,1.6,1.6,0,0,0,.945-.542,2,2,0,0,0,.378-.945,2.14,2.14,0,0,0,.63,1.141,1.821,1.821,0,0,0,1.292.451h2.073a3.5,3.5,0,0,0,.967-.117,1.815,1.815,0,0,0,.63-.315,1.367,1.367,0,0,0,.391-.507,2.326,2.326,0,0,0,.183-.646,2.14,2.14,0,0,0,.63,1.141,1.755,1.755,0,0,0,1.138.444h.838a3.542,3.542,0,0,0,2.366-.775,4.909,4.909,0,0,0,2.776.867c1.727,0,2.871-.608,3.416-1.667a2.124,2.124,0,0,0,.614,1.112,1.727,1.727,0,0,0,1.144.454.427.427,0,0,0,.091,0h3.781v-5.65h0V69.164c0-.227-.085-.34-.28-.34h-2.237v.835h.413a.425.425,0,0,1,.4.353v6.463h-2.388a1.317,1.317,0,0,1-1.185-.495,1.809,1.809,0,0,1-.186-.375,3.929,3.929,0,0,0,.2-1.3,3.315,3.315,0,0,0-3.636-3.413,2.969,2.969,0,0,0-3.268,3.151v.447c0,2.026-1.632,2-2.584,2Zm8.416-2c-.06,1.544-.605,2.3-2.294,2.3a2.669,2.669,0,0,1-2-.8,3.072,3.072,0,0,0,.331-.885,11.119,11.119,0,0,0,.192-1.434,1.789,1.789,0,0,1,1.749-1.938,1.892,1.892,0,0,1,2,1.938,5.988,5.988,0,0,1,.028.819Z" transform="translate(-131.878 -47.107)"/><path class="b" d="M62.93,75.757a6.863,6.863,0,0,0-2.492.359v1.4h.986c.132-.662.659-.867,1.538-.867,1.374,0,2.206.838,2.206,2.543v2.1H59.64v1.093H66.8v-3.2C66.8,77.046,65.268,75.757,62.93,75.757Z" transform="translate(-40.847 -51.882)"/><path class="b" d="M106.469,82.962a3.381,3.381,0,0,0,.961-.117,1.711,1.711,0,0,0,.652-.315,1.494,1.494,0,0,0,.388-.5,2.228,2.228,0,0,0,.186-.659,2.146,2.146,0,0,0,.63,1.147,1.8,1.8,0,0,0,1.292.454h.139a2.332,2.332,0,0,0,1.6-.441,1.925,1.925,0,0,0,.583-1.16,2.165,2.165,0,0,0,.63,1.147,1.809,1.809,0,0,0,1.292.454h2.461V76.937h-2.489V77.8h.555a.406.406,0,0,1,.388.343v1.635h0v2.1h-1.33a1.673,1.673,0,0,1-.7-.132,1.055,1.055,0,0,1-.463-.366,1.576,1.576,0,0,1-.23-.558,3.354,3.354,0,0,1-.072-.63V77.8h-2.492v.867h.561a.406.406,0,0,1,.381.315v1.973a1.219,1.219,0,0,1-.148.712,1.191,1.191,0,0,1-.75.2h-.315a1.661,1.661,0,0,1-.7-.132,1.04,1.04,0,0,1-.466-.356,1.475,1.475,0,0,1-.239-.555,2.883,2.883,0,0,1-.079-.7V78.648h-2.5v.863h.555a.41.41,0,0,1,.391.343V80.97a1.213,1.213,0,0,1-.154.712.728.728,0,0,1-.6.2h-4.411a3.409,3.409,0,0,1-.69-.063c1.761-1.456,2.732-2.253,2.9-2.392a2.393,2.393,0,0,0-1.26-1.947,6.126,6.126,0,0,0-6.324,0,2.431,2.431,0,0,0-1.3,1.96c1.522,1.289,2.47,2.086,2.867,2.392a3.085,3.085,0,0,1-.655.066h-4.1v-4.96H90.787a4.257,4.257,0,0,0-1.468.252,3.721,3.721,0,0,0-1.232.718,3.513,3.513,0,0,0-.841,1.125A3.447,3.447,0,0,0,86.93,80.5a4.493,4.493,0,0,0,.186,1.26,6.859,6.859,0,0,0,.466,1.2h3.892a2.93,2.93,0,0,1-1.661,1.2v.756h1.3a5.357,5.357,0,0,0,1.891-1.963h4.786a3.955,3.955,0,0,0,1.951-.589,3.926,3.926,0,0,0,2.054.589Zm-17.75-1.891a3.929,3.929,0,0,1-.088-.832,2.319,2.319,0,0,1,.211-1.062,2.114,2.114,0,0,1,.523-.681,1.834,1.834,0,0,1,.662-.366,2.266,2.266,0,0,1,.652-.107h1.037v3.854H89.028a3.22,3.22,0,0,1-.309-.81Zm8.127-1.982a1.507,1.507,0,0,1,.807-.923,4.33,4.33,0,0,1,2.124-.473,4.411,4.411,0,0,1,2.14.473,1.4,1.4,0,0,1,.766.923l-2.905,2.458c-1.32-1.084-2.281-1.9-2.93-2.461Z" transform="translate(-59.538 -52.463)"/><path class="b" d="M75.448,24.442a.9.9,0,0,0,.63-.227.741.741,0,0,0,.249-.567.712.712,0,0,0-.249-.539.911.911,0,0,0-.63-.23.9.9,0,0,0-.63.23.7.7,0,0,0-.258.539.728.728,0,0,0,.258.567A.882.882,0,0,0,75.448,24.442Z" transform="translate(-51.066 -15.669)"/><path class="b" d="M67.615,24.442a.914.914,0,0,0,.63-.227.718.718,0,0,0,.268-.567.693.693,0,0,0-.268-.539.945.945,0,0,0-.63-.23.914.914,0,0,0-.63.23.709.709,0,0,0-.255.539.737.737,0,0,0,.255.567.9.9,0,0,0,.63.227Z" transform="translate(-45.703 -15.67)"/><path class="b" d="M302.829,56.829a.917.917,0,0,0-.63.221.718.718,0,0,0-.249.561.69.69,0,0,0,.249.542.9.9,0,0,0,.63.224.914.914,0,0,0,.63-.224.69.69,0,0,0,.258-.542.719.719,0,0,0-.258-.561A.926.926,0,0,0,302.829,56.829Z" transform="translate(-206.804 -38.921)"/><path class="b" d="M65.881,39h0a.2.2,0,0,0,.022.066c.038.063.129.1.271.1H83.253a3.939,3.939,0,0,0,1.935-.586,3.888,3.888,0,0,0,2.036.586h13.928a3.529,3.529,0,0,0,2.363-.775,4.912,4.912,0,0,0,2.786.879c2.505,0,3.781-1.286,3.781-3.359a3.325,3.325,0,0,0-3.624-3.416,2.97,2.97,0,0,0-3.271,3.151V36.1c0,1.815-1.311,1.976-2.269,1.995h-13.5a3.374,3.374,0,0,1-.687-.06c1.749-1.443,2.71-2.237,2.88-2.373a2.351,2.351,0,0,0-1.26-1.932,5.5,5.5,0,0,0-3.151-.885,5.584,5.584,0,0,0-3.151.867,2.431,2.431,0,0,0-1.286,1.95c1.513,1.279,2.452,2.067,2.836,2.373a3.047,3.047,0,0,1-.652.06H67.384V32.658h-.851c-.2,0-.5.236-.6.744A3.323,3.323,0,0,0,60.43,36a2.846,2.846,0,0,0,3.088,3.2,3.444,3.444,0,0,0,2.363-.87Zm-1.891-.659c-.945,0-1.954-.391-1.954-2.373,0-1.906,1.071-2.436,2.168-2.436a3.151,3.151,0,0,1,1.692.529V37.6a2.782,2.782,0,0,1-1.922.747ZM82.339,35.32a1.518,1.518,0,0,1,.8-.914,4.32,4.32,0,0,1,2.108-.47,4.411,4.411,0,0,1,2.127.47,1.387,1.387,0,0,1,.759.914l-2.886,2.442c-1.317-1.071-2.262-1.884-2.921-2.442Zm26.154.775c-.057,1.544-.6,2.3-2.291,2.3a2.647,2.647,0,0,1-2-.8,3.113,3.113,0,0,0,.331-.882,11.089,11.089,0,0,0,.186-1.434,1.788,1.788,0,0,1,1.755-1.932,1.9,1.9,0,0,1,1.988,1.932,6.024,6.024,0,0,1,.009.819Z" transform="translate(-41.388 -22.259)"/><path class="b" d="M254.5,33.541h-.63a.4.4,0,0,1-.315-.258L253,30.856a3.914,3.914,0,0,0-2.631-2.625,8.272,8.272,0,0,0-1.3-.189h-.2a8.962,8.962,0,0,0-3.331.58l-.135.069v.98h.769l.076-.063a5.1,5.1,0,0,1,2.537-.63h.164a2.688,2.688,0,0,1,2.678,1.976l.51,2.559H227.521V26.183c0-.227-.079-.343-.28-.343H225v.832h.416a.435.435,0,0,1,.4.353v7.585h28.7Z" transform="translate(-154.102 -17.698)"/><path class="b" d="M59.64,125.11H60a.315.315,0,0,0,.258-.271v-4.254a.315.315,0,0,0-.258-.277H59.64v-.558h2.278v.558h-.687v2.6l2.036-2.136c.258-.271.192-.457-.1-.457h-.148v-.558h2.051v.558h-.239a.731.731,0,0,0-.466.277l-1.6,1.6,1.787,2.653a.514.514,0,0,0,.378.271h.227v.536H63.62v-.5l-1.535-2.281-.854.857v1.393h.687v.536H59.64Z" transform="translate(-40.847 -82.016)"/><path class="b" d="M79.038,125.157h.315a.252.252,0,0,0,.227-.23v-2.836a.255.255,0,0,0-.217-.236H79v-.573h1.333c.12,0,.167.1.167.388v3.249a.246.246,0,0,0,.23.23h.315v.536H79.038ZM79.5,120.3a.523.523,0,1,1,.522.483.523.523,0,0,1-.522-.483Z" transform="translate(-54.107 -82.063)"/><path class="b" d="M87.322,128.219h.315a.249.249,0,0,0,.227-.23v-2.836a.262.262,0,0,0-.227-.236H87.29v-.573h1.286c.126,0,.221.117.214.539V125a2.6,2.6,0,0,1,1.733-.709c.63,0,1.153.23,1.153,1.1v2.593a.243.243,0,0,0,.221.23h.28v.536H90.161v-.536h.605v-2.521c0-.548-.243-.681-.687-.681a2.546,2.546,0,0,0-1.289.419v2.792h.63v.536h-2.1Z" transform="translate(-59.785 -85.126)"/><path class="b" d="M103.92,129.161a1.116,1.116,0,0,1,.763-.993.655.655,0,0,1-.343-.6,1.034,1.034,0,0,1,.447-.819,1.26,1.26,0,0,1-.514-1.043c0-.835.63-1.418,1.686-1.418a2.71,2.71,0,0,1,.545.054h1.519v.573h-.381c-.082,0-.186.066-.186.151a1.056,1.056,0,0,1,.2.63c0,.813-.646,1.364-1.692,1.364a2.1,2.1,0,0,1-.819-.145.649.649,0,0,0-.117.372c0,.217.142.315.413.315h1.242c.873,0,1.339.343,1.339,1.09,0,.87-.608,1.5-2.234,1.5C104.427,130.208,103.92,129.766,103.92,129.161Zm3.233-.262c0-.347-.192-.5-.681-.5h-1.434a.69.69,0,0,0-.293.574c0,.4.236.649,1.074.649C106.75,129.625,107.153,129.313,107.153,128.9Zm-.347-3.192a.848.848,0,1,0-.848.835.778.778,0,0,0,.848-.835Z" transform="translate(-71.174 -85.126)"/><path class="b" d="M125.593,125.322c-.06,0-.1.095-.123.217h-.63v-1.72h.668l.082.715a1.531,1.531,0,0,0,1.229.447c.677,0,1.122-.315,1.122-.945,0-.8-.592-.892-1.449-1.128-1.037-.287-1.55-.715-1.55-1.717,0-1.062.785-1.594,1.869-1.594a2.1,2.1,0,0,1,1.065.246c.057,0,.117-.1.123-.186h.63v1.576h-.652l-.079-.592a1.415,1.415,0,0,0-1.075-.4c-.611,0-1.034.236-1.034.876,0,.69.539.81,1.349,1.027,1.125.315,1.7.668,1.7,1.755s-.687,1.736-1.988,1.736A2.294,2.294,0,0,1,125.593,125.322Z" transform="translate(-85.502 -81.91)"/><path class="b" d="M139.63,127.49c0-.914.725-1.342,1.746-1.342a4.1,4.1,0,0,1,1.011.12v-.583c0-.564-.315-.766-.892-.766a1.576,1.576,0,0,0-1.147.413h-.422v-.7a3.86,3.86,0,0,1,1.727-.347c1.037,0,1.645.315,1.645,1.308v2.351a.252.252,0,0,0,.268.271h.227v.454a1.131,1.131,0,0,1-.583.136c-.479,0-.731-.2-.8-.6a1.616,1.616,0,0,1-1.349.6A1.266,1.266,0,0,1,139.63,127.49Zm2.757.243v-.945a4,4,0,0,0-.826-.088c-.63,0-1.027.23-1.027.775s.3.759.816.759A1.345,1.345,0,0,0,142.387,127.733Z" transform="translate(-95.632 -85.121)"/><path class="b" d="M154.415,127.845v-2.578a.249.249,0,0,0-.23-.224h-.315v-.573h1.465v3.091c0,.573.293.715.706.715a2.348,2.348,0,0,0,1.26-.435v-2.8h-.63v-.573h1.541V128.1a.265.265,0,0,0,.239.236h.337v.536h-1.26c-.12,0-.2-.1-.2-.514v-.107a2.477,2.477,0,0,1-1.7.684C154.982,128.941,154.415,128.692,154.415,127.845Z" transform="translate(-105.385 -85.249)"/><path class="b" d="M171,123.49c0-1.683,1.046-2.31,1.928-2.31a1.8,1.8,0,0,1,1.355.523v-1.4h-.63v-.558h1.38c.117,0,.17.085.17.227v4.894a.262.262,0,0,0,.227.236h.315v.536h-1.26c-.1,0-.164-.123-.176-.605a1.891,1.891,0,0,1-1.465.659C171.945,125.7,171,125.186,171,123.49Zm3.274,1.065v-2.363a1.629,1.629,0,0,0-1.059-.372c-.646,0-1.279.356-1.279,1.645,0,1.349.589,1.667,1.153,1.667A1.576,1.576,0,0,0,174.274,124.555Z" transform="translate(-117.117 -82.016)"/><path class="b" d="M192.248,123.619V120.7a.315.315,0,0,0-.271-.277h-.337v-.558h2.319v.558h-.744v3.268c0,1.175.583,1.472,1.434,1.472s1.421-.287,1.421-1.472v-3.268h-.737v-.558h2.061v.558h-.334a.315.315,0,0,0-.265.277v2.924a1.96,1.96,0,0,1-2.247,2.206C193.064,125.825,192.248,125.122,192.248,123.619Z" transform="translate(-131.254 -82.092)"/><path class="b" d="M210.737,128.34h.315a.255.255,0,0,0,.23-.224V125.28a.277.277,0,0,0-.23-.236h-.362v-.573h1.289c.126,0,.217.12.211.542v.117a2.59,2.59,0,0,1,1.733-.709c.63,0,1.156.23,1.156,1.1v2.6a.236.236,0,0,0,.217.224h.28v.545h-2.017v-.545h.608v-2.521c0-.551-.246-.684-.69-.684a2.521,2.521,0,0,0-1.273.41v2.786h.614v.545h-2.083Z" transform="translate(-144.301 -85.215)"/><path class="b" d="M227.56,125.162h.315a.252.252,0,0,0,.227-.224V122.1a.268.268,0,0,0-.217-.236h-.375v-.573h1.333c.12,0,.164.1.164.391v3.258a.246.246,0,0,0,.233.224h.315v.545h-2.02Zm.46-4.849a.523.523,0,1,1,.523.514.517.517,0,0,1-.523-.514Z" transform="translate(-155.821 -82.037)"/><path class="b" d="M234.8,125.414c-.069-.161-.18-.271-.315-.271h-.167v-.573h1.944v.573h-.63l1.093,2.959h.019l.945-2.467c.1-.28.082-.492-.23-.492h-.217v-.573h1.771v.573h-.154a.384.384,0,0,0-.343.277l-1.462,3.567h-.835Z" transform="translate(-160.485 -85.318)"/><path class="b" d="M249.32,126.685a2.082,2.082,0,0,1,2.149-2.275c1.279,0,1.957.649,1.957,2.124v.28h-3.151c.032,1.027.473,1.531,1.358,1.531a1.292,1.292,0,0,0,1.134-.5h.52v.63a2.937,2.937,0,0,1-1.727.457A2.044,2.044,0,0,1,249.32,126.685Zm3.183-.419c-.032-.945-.391-1.289-1.034-1.289s-1.1.419-1.182,1.289Z" transform="translate(-170.758 -85.208)"/><path class="b" d="M264.354,128.381h.315a.249.249,0,0,0,.23-.224v-2.836a.271.271,0,0,0-.23-.236h-.359v-.573H265.6c.126,0,.211.11.211.589v.145a1.642,1.642,0,0,1,1.314-.766,1.1,1.1,0,0,1,.252.032v.763H267.2a1.919,1.919,0,0,0-1.39.447V128.4h.7v.545h-2.168Z" transform="translate(-181.025 -85.256)"/><path class="b" d="M275.23,128.649v-.926h.558c.107.413.391.577.98.577s.977-.214.977-.668-.315-.533-1.056-.652c-.908-.132-1.377-.419-1.377-1.3,0-.826.63-1.308,1.683-1.308a4.058,4.058,0,0,1,1.449.221v.876h-.529c-.095-.315-.337-.488-.945-.488-.539,0-.857.217-.857.58s.236.523,1,.63c1.011.154,1.487.422,1.487,1.3s-.592,1.393-1.812,1.393A3.841,3.841,0,0,1,275.23,128.649Z" transform="translate(-188.504 -85.183)"/><path class="b" d="M287.347,125.162h.315a.246.246,0,0,0,.227-.224V122.1a.265.265,0,0,0-.217-.236H287.3v-.573h1.33c.12,0,.17.1.17.391v3.258a.239.239,0,0,0,.227.224h.331v.545h-2.023Zm.463-4.849a.523.523,0,1,1,.523.514.517.517,0,0,1-.523-.514Z" transform="translate(-196.771 -82.037)"/><path class="b" d="M294.667,125.356v-2.795H294.1v-.573h.567V120.8h.911v1.188h1.011v.573h-1v2.713c0,.5.167.6.614.6h.441v.492a2.149,2.149,0,0,1-.728.11C295.124,126.462,294.667,126.185,294.667,125.356Z" transform="translate(-201.428 -82.735)"/><path class="b" d="M304.224,129.838a2.206,2.206,0,0,0,1.223-.967l-1.49-3.466a.37.37,0,0,0-.315-.271h-.161v-.573h1.957v.573h-.652l1.134,2.713.908-2.206c.12-.29.1-.492-.214-.492H306.4v-.573h1.8v.573H308a.369.369,0,0,0-.315.277l-1.4,3.227a3.454,3.454,0,0,1-1.289,1.7h-.772Z" transform="translate(-207.852 -85.311)"/></svg>